<svg width="49" height="39" viewBox="0 0 49 39" fill="none" xmlns="http://www.w3.org/2000/svg">
<g clip-path="url(#clip0_127_6)">
<path d="M48.75 32.0942V34.5317C48.75 35.0166 48.5574 35.4816 48.2146 35.8244C47.8717 36.1673 47.4067 36.3599 46.9219 36.3599H23.7656C23.2808 36.3599 22.8158 36.1673 22.473 35.8244C22.1301 35.4816 21.9375 35.0166 21.9375 34.5317V32.0942C21.9375 31.6094 22.1301 31.1444 22.473 30.8016C22.8158 30.4587 23.2808 30.2661 23.7656 30.2661H46.9219C47.4067 30.2661 47.8717 30.4587 48.2146 30.8016C48.5574 31.1444 48.75 31.6094 48.75 32.0942Z" fill="#717171"/>
<path d="M2.2623 35.394L0.533202 33.668C0.191319 33.3253 -0.000679016 32.8609 -0.000679016 32.3769C-0.000679016 31.8928 0.191319 31.4285 0.533202 31.0857L12.2637 19.2974L0.533202 7.51055C0.191319 7.16784 -0.000679016 6.70352 -0.000679016 6.21944C-0.000679016 5.73535 0.191319 5.27103 0.533202 4.92832L2.2623 3.19922C2.60514 2.85641 3.07011 2.66382 3.55494 2.66382C4.03977 2.66382 4.50474 2.85641 4.84758 3.19922L19.6524 18.0047C19.9952 18.3476 20.1878 18.8126 20.1878 19.2974C20.1878 19.7822 19.9952 20.2472 19.6524 20.59L4.84758 35.394C4.50474 35.7368 4.03977 35.9294 3.55494 35.9294C3.07011 35.9294 2.60514 35.7368 2.2623 35.394V35.394Z" fill="#272727"/>
</g>
<defs>
<clipPath id="clip0_127_6">
<rect width="48.75" height="39" fill="white"/>
</clipPath>
</defs>
</svg>
