<svg width="56" height="39" viewBox="0 0 56 39" fill="none" xmlns="http://www.w3.org/2000/svg">
<g clip-path="url(#clip0_108_3)">
<g clip-path="url(#clip1_108_3)">
<path d="M22.5594 20.725L5.53624 37.7712C4.71523 38.5934 3.38415 38.5934 2.56323 37.7712L0.577655 35.7831C-0.241959 34.9623 -0.243535 33.6322 0.574151 32.8095L14.0655 19.2364L0.574239 5.66333C-0.243448 4.84068 -0.241871 3.51052 0.577743 2.6898L2.56323 0.701618C3.38424 -0.12051 4.71531 -0.12051 5.53624 0.701618L22.5594 17.7479C23.3805 18.5699 23.3805 19.9028 22.5594 20.725ZM56.0219 36.7789V33.9721C56.0219 32.8094 55.0807 31.867 53.9196 31.867H27.2912C26.1301 31.867 25.1889 32.8094 25.1889 33.9721V36.7789C25.1889 37.9415 26.1301 38.884 27.2912 38.884H53.9196C55.0807 38.884 56.0219 37.9415 56.0219 36.7789Z" fill="#E7E7E7"/>
</g>
</g>
<defs>
<clipPath id="clip0_108_3">
<rect width="56" height="39" fill="white"/>
</clipPath>
<clipPath id="clip1_108_3">
<rect width="56.0599" height="44.9088" fill="white" transform="translate(-0.0380859 -3.21796)"/>
</clipPath>
</defs>
</svg>
