<svg width="56" height="39" viewBox="0 0 56 39" fill="none" xmlns="http://www.w3.org/2000/svg">
<g clip-path="url(#clip0_96_18)">
<g clip-path="url(#clip1_96_18)">
<path d="M22.5594 20.7249L5.53616 37.7712C4.71514 38.5933 3.38407 38.5933 2.56314 37.7712L0.577571 35.783C-0.242043 34.9623 -0.243619 33.6321 0.574067 32.8095L14.0654 19.2363L0.574155 5.66327C-0.243532 4.84062 -0.241955 3.51046 0.577659 2.68973L2.56314 0.701557C3.38416 -0.120571 4.71523 -0.120571 5.53616 0.701557L22.5594 17.7478C23.3804 18.5699 23.3804 19.9028 22.5594 20.7249ZM56.0218 36.7788V33.972C56.0218 32.8094 55.0806 31.8669 53.9195 31.8669H27.2911C26.13 31.8669 25.1888 32.8094 25.1888 33.972V36.7788C25.1888 37.9414 26.13 38.8839 27.2911 38.8839H53.9195C55.0806 38.8839 56.0218 37.9414 56.0218 36.7788Z" fill="#272727"/>
</g>
</g>
<defs>
<clipPath id="clip0_96_18">
<rect width="56" height="39" fill="white"/>
</clipPath>
<clipPath id="clip1_96_18">
<rect width="56.0599" height="44.9088" fill="white" transform="translate(-0.0381241 -3.21802)"/>
</clipPath>
</defs>
</svg>
