<svg width="47" height="47" viewBox="0 0 47 47" fill="none" xmlns="http://www.w3.org/2000/svg">
<g clip-path="url(#clip0_108_6)">
<path d="M39.6562 29.375H36.7188C36.3292 29.375 35.9556 29.5297 35.6802 29.8052C35.4047 30.0806 35.25 30.4542 35.25 30.8438V41.125H5.875V11.75H19.0938C19.4833 11.75 19.8569 11.5953 20.1323 11.3198C20.4078 11.0444 20.5625 10.6708 20.5625 10.2812V7.34375C20.5625 6.95421 20.4078 6.58063 20.1323 6.30519C19.8569 6.02974 19.4833 5.875 19.0938 5.875H4.40625C3.23764 5.875 2.11689 6.33923 1.29056 7.16556C0.464229 7.99189 0 9.11264 0 10.2812L0 42.5938C0 43.7624 0.464229 44.8831 1.29056 45.7094C2.11689 46.5358 3.23764 47 4.40625 47H36.7188C37.8874 47 39.0081 46.5358 39.8344 45.7094C40.6608 44.8831 41.125 43.7624 41.125 42.5938V30.8438C41.125 30.4542 40.9703 30.0806 40.6948 29.8052C40.4194 29.5297 40.0458 29.375 39.6562 29.375ZM44.7969 0H33.0469C31.0852 0 30.1048 2.37846 31.4863 3.76367L34.7662 7.04357L12.3926 29.409C12.1872 29.6136 12.0242 29.8569 11.913 30.1246C11.8018 30.3924 11.7446 30.6795 11.7446 30.9695C11.7446 31.2595 11.8018 31.5466 11.913 31.8144C12.0242 32.0822 12.1872 32.3254 12.3926 32.5301L14.4736 34.6074C14.6783 34.8128 14.9215 34.9758 15.1893 35.087C15.4571 35.1982 15.7442 35.2554 16.0342 35.2554C16.3241 35.2554 16.6112 35.1982 16.879 35.087C17.1468 34.9758 17.39 34.8128 17.5947 34.6074L39.9573 12.2384L43.2363 15.5137C44.6133 16.8906 47 15.9268 47 13.9531V2.20312C47 1.61882 46.7679 1.05845 46.3547 0.64528C45.9416 0.232114 45.3812 0 44.7969 0V0Z" fill="#E7E7E7"/>
</g>
<defs>
<clipPath id="clip0_108_6">
<rect width="47" height="47" fill="white"/>
</clipPath>
</defs>
</svg>
