<svg width="53" height="53" viewBox="0 0 53 53" fill="none" xmlns="http://www.w3.org/2000/svg">
<g clip-path="url(#clip0_94_6)">
<path d="M14.1402 14.3668C13.1006 14.6607 12.1486 15.2043 11.3672 15.9504C10.5857 16.6964 9.99863 17.6223 9.65697 18.6472L0 47.6171L1.52064 49.1377L17.0594 33.599C16.7499 32.951 16.5625 32.2347 16.5625 31.4686C16.5625 28.7244 18.7871 26.4999 21.5312 26.4999C24.2754 26.4999 26.5 28.7244 26.5 31.4686C26.5 34.2128 24.2754 36.4374 21.5312 36.4374C20.7652 36.4374 20.0489 36.25 19.4009 35.9405L3.86217 51.4793L5.38281 52.9999L34.3527 43.3429C35.3776 43.0013 36.3035 42.4142 37.0495 41.6327C37.7956 40.8513 38.3392 39.8993 38.6331 38.8597L43.0625 23.1874L29.8125 9.9374L14.1402 14.3668ZM51.5446 7.67765L45.3222 1.45532C43.3813 -0.485596 40.2334 -0.485596 38.2925 1.45532L32.4387 7.30913L45.6908 20.5612L51.5446 14.7074C53.4855 12.7665 53.4855 9.6196 51.5446 7.67765Z" fill="#272727"/>
</g>
<defs>
<clipPath id="clip0_94_6">
<rect width="53" height="53" fill="white"/>
</clipPath>
</defs>
</svg>
