<svg width="53" height="53" viewBox="0 0 53 53" fill="none" xmlns="http://www.w3.org/2000/svg">
<g clip-path="url(#clip0_127_2)">
<path d="M29.8125 9.9375L43.0625 23.1875L38.6331 38.8598C38.3392 39.8994 37.7956 40.8514 37.0495 41.6329C36.3035 42.4143 35.3776 43.0014 34.3527 43.343L5.38281 53L3.86217 51.4794L19.4009 35.9406C20.4681 36.4548 21.6828 36.5746 22.8298 36.2788C23.9769 35.9831 24.9822 35.2909 25.6678 34.3249C26.3533 33.3588 26.6748 32.1813 26.5753 31.001C26.4758 29.8206 25.9617 28.7135 25.1241 27.8759C24.2865 27.0383 23.1794 26.5242 21.999 26.4247C20.8187 26.3252 19.6412 26.6467 18.6751 27.3322C17.7091 28.0178 17.0169 29.0231 16.7212 30.1702C16.4254 31.3172 16.5452 32.5319 17.0594 33.5991L1.52064 49.1378L0 47.6172L9.65697 18.6473C9.9986 17.6224 10.5857 16.6965 11.3671 15.9505C12.1486 15.2044 13.1006 14.6608 14.1402 14.3669L29.8125 9.9375Z" fill="#272727"/>
<path d="M51.5446 7.67774C52.0064 8.13918 52.3728 8.68711 52.6227 9.29021C52.8727 9.89331 53.0013 10.5398 53.0013 11.1926C53.0013 11.8455 52.8727 12.4919 52.6227 13.095C52.3728 13.6981 52.0064 14.246 51.5446 14.7075L45.6908 20.5613L32.4408 7.31129L38.2946 1.45748C38.756 0.995661 39.3039 0.629302 39.907 0.379345C40.5101 0.129388 41.1566 0.000732422 41.8094 0.000732422C42.4623 0.000732422 43.1087 0.129388 43.7118 0.379345C44.3149 0.629302 44.8629 0.995661 45.3243 1.45748L51.5446 7.67774Z" fill="#717171"/>
</g>
<defs>
<clipPath id="clip0_127_2">
<rect width="53" height="53" fill="white"/>
</clipPath>
</defs>
</svg>
