<svg width="31" height="31" viewBox="0 0 31 31" fill="none" xmlns="http://www.w3.org/2000/svg">
<g clip-path="url(#clip0_133_12)">
<path d="M14.8661 24.8546L10.325 30.4751C9.47739 31.5105 7.7518 30.9474 7.7518 29.5185V21.6759L24.7207 6.37143C25.0537 6.07475 25.5259 6.52885 25.2414 6.87396L11.608 23.4844L14.8661 24.8546Z" fill="#555555"/>
<path d="M30.9751 1.69538L26.6157 27.8516C26.5791 28.0679 26.4942 28.2731 26.3672 28.452C26.2403 28.6309 26.0746 28.7788 25.8826 28.8847C25.6905 28.9906 25.477 29.0518 25.258 29.0638C25.039 29.0757 24.8201 29.038 24.6177 28.9536L11.6079 23.4844L25.2413 6.87395C25.5259 6.52883 25.0536 6.07473 24.7206 6.37141L7.7499 21.6758L0.889338 19.0015C0.637028 18.8956 0.419753 18.7206 0.26252 18.4966C0.105287 18.2726 0.0144862 18.0088 0.000568791 17.7355C-0.0133486 17.4623 0.0501826 17.1906 0.183851 16.9518C0.317519 16.713 0.515891 16.5169 0.756135 16.3859L28.8202 0.19563C29.8671 -0.409838 31.1815 0.474146 30.9751 1.69538V1.69538Z" fill="#E0E0E0"/>
</g>
<defs>
<clipPath id="clip0_133_12">
<rect width="31" height="31" fill="white"/>
</clipPath>
</defs>
</svg>
